<svg width="14" height="14" viewBox="0 0 14 14" fill="none" xmlns="http://www.w3.org/2000/svg">
<path d="M3.22092 11.6592L3.22094 11.6592L3.21522 11.6559C3.00737 11.5362 2.8335 11.2659 2.8335 10.8147V4.04893C2.8335 3.06165 3.64617 2.25 4.65779 2.25H9.34254C10.3542 2.25 11.1668 3.06165 11.1668 4.04893V10.8147C11.1668 11.2603 10.9966 11.5297 10.7827 11.6573C10.5679 11.7797 10.2414 11.7976 9.84214 11.5795C9.84188 11.5793 9.84163 11.5792 9.84137 11.579L7.47884 10.2769C7.31511 10.1847 7.12864 10.1643 7.00016 10.1643C6.87168 10.1643 6.6852 10.1847 6.52146 10.2769L4.15752 11.5798L4.15751 11.5798L4.15488 11.5813C3.94145 11.7006 3.74167 11.75 3.57392 11.75C3.43866 11.75 3.31751 11.7165 3.22092 11.6592Z" stroke="white"/>
</svg>
