<svg width="14" height="15" viewBox="0 0 14 15" fill="none" xmlns="http://www.w3.org/2000/svg">
<rect opacity="0.01" x="0.437267" y="0.937267" width="13.1255" height="13.1255" fill="#D8D8D8" stroke="#979797" stroke-width="0.874533"/>
<path fill-rule="evenodd" clip-rule="evenodd" d="M4.56844 4.74403L6.32484 1.25327C6.50784 0.889576 6.95677 0.740253 7.32756 0.919746C7.47521 0.991221 7.59473 1.10844 7.6676 1.25327L9.42332 4.74403L13.3514 5.30373C13.7333 5.35817 14.0058 5.68641 13.992 6.05625L13.9847 6.13605C13.961 6.29588 13.8842 6.44359 13.7663 6.55632L10.9239 9.27398L11.5953 13.1101C11.6606 13.4832 11.4265 13.8388 11.0636 13.9403L10.984 13.958C10.8217 13.9853 10.6547 13.9594 10.509 13.8842L6.99622 12.073L3.48343 13.8842C3.14184 14.0604 2.72473 13.9519 2.51419 13.6448L2.47234 13.576C2.39572 13.433 2.36928 13.2693 2.39712 13.1101L3.06784 9.27332L0.226096 6.55632C-0.048849 6.29344 -0.0737119 5.87378 0.155225 5.58264L0.212564 5.51787C0.327494 5.40222 0.478087 5.32696 0.64103 5.30373L4.56844 4.74403ZM7.06336 1.54486C7.05608 1.53038 7.04413 1.51865 7.02936 1.51151C6.99228 1.49356 6.94739 1.50849 6.92909 1.54486L5.01592 5.34715L0.737931 5.95687C0.721637 5.9592 0.706578 5.96672 0.695085 5.97829C0.666222 6.00733 0.666828 6.05382 0.696438 6.08213L3.79202 9.0418L3.06125 13.2209C3.05847 13.2368 3.06111 13.2532 3.06877 13.2675C3.08801 13.3034 3.13328 13.3172 3.16988 13.2983L6.99623 11.3252L10.8226 13.2983C10.8371 13.3059 10.8538 13.3084 10.8701 13.3057C10.9108 13.2989 10.9382 13.2609 10.9312 13.2209L10.2004 9.0418L13.296 6.08213C13.3078 6.07086 13.3155 6.05609 13.3178 6.04011C13.3238 5.99997 13.2954 5.96271 13.2545 5.95687L8.97654 5.34715L7.06336 1.54486Z" fill="#6600D5"/>
<path fill-rule="evenodd" clip-rule="evenodd" d="M4.79148 5.04757L6.62696 1.40102C6.72761 1.20099 6.97453 1.11886 7.17846 1.21758C7.25967 1.25689 7.3254 1.32136 7.36548 1.40102L9.20029 5.04757L13.303 5.63226C13.5055 5.66112 13.6521 5.83002 13.6555 6.02444L13.6513 6.09003C13.6382 6.17794 13.596 6.25918 13.5312 6.32118L10.5621 9.15915L11.2633 13.1675C11.2979 13.3653 11.1794 13.5542 10.9919 13.6175L10.927 13.6338C10.8378 13.6488 10.7459 13.6346 10.6658 13.5932L6.99622 11.7004L3.32666 13.5932C3.14549 13.6867 2.9257 13.6345 2.80641 13.4792L2.77056 13.4237C2.72842 13.3451 2.71388 13.255 2.72918 13.1675L3.42969 9.15915L0.461267 6.32118C0.31651 6.18278 0.297792 5.96535 0.406909 5.80656L0.453824 5.75003C0.517036 5.68642 0.599862 5.64503 0.689481 5.63226L4.79148 5.04757ZM6.99588 2.16016L5.2393 5.65174L1.31152 6.21159L4.15367 8.92898L3.48257 12.7653L6.99588 10.9544L10.5085 12.7653L9.83808 8.92898L12.6796 6.21159L8.75246 5.65174L6.99588 2.16016Z" fill="white"/>
<path fill-rule="evenodd" clip-rule="evenodd" d="M6.99609 8.02113L13.4045 5.97878L8.9764 5.34766L6.99609 8.02113Z" fill="#F6DAFF"/>
<path fill-rule="evenodd" clip-rule="evenodd" d="M6.99609 8.02282L13.4045 5.98047L10.2003 9.044L6.99609 8.02282Z" fill="#D089FF"/>
<path fill-rule="evenodd" clip-rule="evenodd" d="M6.99609 8.02344L10.2003 9.04461L10.9567 13.3704L6.99609 8.02344Z" fill="#BA5DFF"/>
<path fill-rule="evenodd" clip-rule="evenodd" d="M6.99609 8.02344L10.9567 13.3704L6.99609 11.328V8.02344Z" fill="#8F4BFF"/>
<path fill-rule="evenodd" clip-rule="evenodd" d="M6.99578 8.02344V11.328L3.03516 13.3704L6.99578 8.02344Z" fill="#D881FF"/>
<path fill-rule="evenodd" clip-rule="evenodd" d="M6.99578 8.02344L3.03516 13.3704L3.79157 9.04461L6.99578 8.02344Z" fill="#F3AFFF"/>
<path fill-rule="evenodd" clip-rule="evenodd" d="M6.99631 8.02282L3.7921 9.044L0.587891 5.98047L6.99631 8.02282Z" fill="#E46EFE"/>
<path fill-rule="evenodd" clip-rule="evenodd" d="M6.99631 8.02113L0.587891 5.97878L5.016 5.34766L6.99631 8.02113Z" fill="#F2A3FF"/>
<path fill-rule="evenodd" clip-rule="evenodd" d="M6.99594 8.02326V1.41406L5.01562 5.34978L6.99594 8.02326Z" fill="#F5D8FF"/>
<path fill-rule="evenodd" clip-rule="evenodd" d="M8.9764 5.34978L6.99609 8.02326V1.41406L8.9764 5.34978Z" fill="#F1A3FF"/>
</svg>
