<svg width="24" height="24" viewBox="0 0 24 24" fill="none" xmlns="http://www.w3.org/2000/svg">
<path fill-rule="evenodd" clip-rule="evenodd" d="M6.85889 17.1412C6.90569 19.59 7.9455 20.5714 10.4641 20.5714H16.9784C19.5429 20.5714 20.5715 19.5429 20.5715 16.9646V10.4503C20.5715 7.94081 19.5867 6.90205 17.1415 6.85858C17.1425 6.91226 17.1429 6.96664 17.1429 7.02172V8.859C18.0869 8.88077 18.3038 9.08758 18.3224 9.10622C18.3421 9.12591 18.5715 9.36657 18.5715 10.4503V16.9646C18.5715 18.0576 18.3411 18.302 18.3203 18.3227C18.3011 18.342 18.0622 18.5714 16.9784 18.5714H10.4641C9.3709 18.5714 9.1283 18.3409 9.10801 18.3207C9.08887 18.3015 8.88275 18.0846 8.85938 17.1429H7.03551C6.97581 17.1429 6.91693 17.1423 6.85889 17.1412Z" fill="white"/>
<path d="M4.42854 13.536C4.42854 14.7271 4.67235 15.2993 4.97221 15.5992C5.27208 15.899 5.84423 16.1428 7.03539 16.1428H13.5497C14.7327 16.1428 15.3014 15.8996 15.5998 15.6002C15.899 15.3001 16.1428 14.7271 16.1428 13.536V7.0217C16.1428 5.83869 15.8996 5.26922 15.6009 4.97052C15.3022 4.67182 14.7327 4.42856 13.5497 4.42856H7.03539C5.84429 4.42856 5.27127 4.67235 4.97117 4.97157C4.67182 5.27003 4.42854 5.83864 4.42854 7.0217V13.536Z" stroke="white" stroke-width="2" stroke-linecap="round" stroke-linejoin="round"/>
</svg>
