<svg width="14" height="14" viewBox="0 0 14 14" fill="none" xmlns="http://www.w3.org/2000/svg">
<circle cx="7" cy="7" r="7" fill="white"/>
<path d="M6.39112 8.3019C6.39112 7.89245 6.46832 7.55013 6.6227 7.27493C6.77708 6.99973 7.03886 6.73459 7.40803 6.47953C7.67652 6.29158 7.87789 6.14391 8.01213 6.03652C8.14638 5.92241 8.25042 5.79823 8.32425 5.66399C8.4048 5.52303 8.44507 5.35858 8.44507 5.17064C8.44507 4.86859 8.32425 4.6303 8.08261 4.45578C7.84097 4.28126 7.49193 4.19401 7.0355 4.19401C6.36428 4.19401 5.74339 4.32825 5.17285 4.59674V3.71072C5.44134 3.59662 5.73332 3.506 6.0488 3.43888C6.37099 3.36504 6.69989 3.32812 7.0355 3.32812C7.77385 3.32812 8.36117 3.49258 8.79747 3.82148C9.23376 4.15038 9.45191 4.6001 9.45191 5.17064C9.45191 5.51967 9.36129 5.81837 9.18006 6.06672C8.99883 6.31508 8.71356 6.58021 8.32425 6.86212C8.04234 7.06349 7.84097 7.22459 7.72015 7.34541C7.59933 7.45951 7.51207 7.5904 7.45837 7.73807C7.40467 7.87903 7.37782 8.07033 7.37782 8.31197V8.51334H6.39112V8.3019ZM6.87441 10.668C6.7066 10.668 6.56564 10.6109 6.45153 10.4968C6.33743 10.3827 6.28037 10.2417 6.28037 10.0739C6.28037 9.90613 6.33743 9.76517 6.45153 9.65106C6.56564 9.53696 6.7066 9.4799 6.87441 9.4799C7.04221 9.4799 7.18317 9.53696 7.29728 9.65106C7.4181 9.76517 7.47851 9.90613 7.47851 10.0739C7.47851 10.2417 7.4181 10.3827 7.29728 10.4968C7.18317 10.6109 7.04221 10.668 6.87441 10.668Z" fill="#7621FF"/>
</svg>
