<svg fill="none" xmlns="http://www.w3.org/2000/svg" viewBox="0 0 24 24" class="design-iconfont">
  <path d="M12 1C9.8245 1 7.69728 1.64307 5.88904 2.85316C4.07996 4.06324 2.67024 5.78113 1.83763 7.79512C1.00501 9.80065 0.786709 12.0093 1.21148 14.1502C1.6354 16.2827 2.68378 18.2373 4.22209 19.7774C5.7604 21.3175 7.7201 22.3669 9.85411 22.79C11.9881 23.2131 14.1991 22.9931 16.2096 22.1638C18.2192 21.3345 19.9378 19.9213 21.1461 18.1104C22.3552 16.2995 23 14.1756 23 12.0008C22.9966 9.08134 21.8365 6.28889 19.7744 4.22412C17.7124 2.15936 14.9167 1 12 1ZM13.2692 17.0781H12.8461V17.9243C12.8461 18.1528 12.7573 18.3643 12.5982 18.5251C12.4399 18.6774 12.2242 18.7705 12 18.7705C11.7757 18.7705 11.56 18.6774 11.4018 18.5251C11.2427 18.3643 11.1538 18.1528 11.1538 17.9243V17.0781H9.4615C9.23727 17.0781 9.02153 16.9849 8.86329 16.8326C8.70422 16.6718 8.61535 16.4603 8.61535 16.2318C8.61535 16.0034 8.70422 15.7919 8.86329 15.6311C9.02153 15.4788 9.23727 15.3856 9.4615 15.3856H13.2692C13.606 15.3856 13.9283 15.2503 14.167 15.0134C14.4047 14.7764 14.5384 14.4548 14.5384 14.1163C14.5384 13.7778 14.4047 13.4562 14.167 13.2193C13.9283 12.9823 13.606 12.847 13.2692 12.847H10.7307C9.9455 12.847 9.19244 12.5339 8.63652 11.9754C8.08144 11.4253 7.76919 10.6722 7.76919 9.88525C7.76919 9.09827 8.08144 8.34516 8.63652 7.79512C9.19244 7.23662 9.9455 6.9235 10.7307 6.9235H11.1538V6.07728C11.1538 5.84881 11.2427 5.63729 11.4018 5.4765C11.56 5.32419 11.7757 5.23107 12 5.23107C12.2242 5.23107 12.4399 5.32419 12.5982 5.4765C12.7573 5.63729 12.8461 5.84881 12.8461 6.07728V6.9235H14.5384C14.7627 6.9235 14.9784 7.01661 15.1366 7.16893C15.2957 7.32971 15.3846 7.54123 15.3846 7.76971C15.3846 7.99819 15.2957 8.20971 15.1366 8.37049C14.9784 8.52281 14.7627 8.61592 14.5384 8.61592H10.7307C10.394 8.61592 10.0716 8.75127 9.83299 8.98821C9.59522 9.22515 9.4615 9.54676 9.4615 9.88525C9.4615 10.2237 9.59522 10.5453 9.83299 10.7823C10.0716 11.0192 10.394 11.1546 10.7307 11.1546H13.2692C14.0544 11.1546 14.8083 11.4677 15.3634 12.0262C15.9185 12.5762 16.2308 13.3293 16.2308 14.1163C16.2308 14.9033 15.9185 15.6564 15.3634 16.2064C14.8083 16.7649 14.0544 17.0781 13.2692 17.0781Z" fill="#FFF770"/>
</svg>
