<svg width="14" height="14" viewBox="0 0 14 14" fill="none" xmlns="http://www.w3.org/2000/svg">
<circle cx="7" cy="7" r="7" fill="#FF4B00"/>
<ellipse cx="7" cy="6.5" rx="7" ry="6.5" fill="#FFC500"/>
<mask id="mask0_1888_249288" style="mask-type:luminance" maskUnits="userSpaceOnUse" x="0" y="0" width="14" height="13">
<ellipse cx="7" cy="6.5" rx="7" ry="6.5" fill="white"/>
</mask>
<g mask="url(#mask0_1888_249288)">
<rect x="-1" y="11" width="18" height="3" transform="rotate(-45 -1 11)" fill="#FFFCD0"/>
<rect x="2" y="14" width="18" height="1" transform="rotate(-45 2 14)" fill="#FFFCD0"/>
</g>
<ellipse cx="7" cy="6.5" rx="6" ry="5.5" fill="#FFC900"/>
<mask id="mask1_1888_249288" style="mask-type:luminance" maskUnits="userSpaceOnUse" x="1" y="1" width="12" height="11">
<ellipse cx="7" cy="6.5" rx="6" ry="5.5" fill="white"/>
</mask>
<g mask="url(#mask1_1888_249288)">
<rect x="-1" y="4" width="15" height="4" transform="rotate(-5 -1 4)" fill="#FF9F00"/>
<rect x="-1" y="7" width="15" height="6" transform="rotate(-5 -1 7)" fill="#FF8000"/>
</g>
<path d="M12.75 6.5C12.75 9.37946 10.1966 11.75 7 11.75C3.80344 11.75 1.25 9.37946 1.25 6.5C1.25 3.62054 3.80344 1.25 7 1.25C10.1966 1.25 12.75 3.62054 12.75 6.5Z" stroke="#FF6700" stroke-width="0.5"/>
<mask id="mask2_1888_249288" style="mask-type:luminance" maskUnits="userSpaceOnUse" x="1" y="1" width="12" height="11">
<path d="M12.75 6.5C12.75 9.37946 10.1966 11.75 7 11.75C3.80344 11.75 1.25 9.37946 1.25 6.5C1.25 3.62054 3.80344 1.25 7 1.25C10.1966 1.25 12.75 3.62054 12.75 6.5Z" fill="white" stroke="white" stroke-width="0.5"/>
</mask>
<g mask="url(#mask2_1888_249288)">
</g>
<path d="M6.46822 4.17082L6.83403 4.84375L7.19946 3.82422L10.5232 3.82422V6.59732L7.0282 10.2363L3.5332 6.59738V4.17082H6.46822Z" fill="#FF4B00"/>
<path d="M6.45846 3.58097L6.82427 4.25391L7.18969 3.23438L10.5134 3.23438V6.00748L7.01844 9.64646L3.52344 6.00754V3.58097H6.45846Z" fill="#FFE672"/>
<mask id="mask3_1888_249288" style="mask-type:luminance" maskUnits="userSpaceOnUse" x="3" y="3" width="8" height="7">
<path d="M6.45846 3.58097L6.82427 4.25391L7.18969 3.23438L10.5134 3.23438V6.00748L7.01844 9.64646L3.52344 6.00754V3.58097H6.45846Z" fill="white"/>
</mask>
<g mask="url(#mask3_1888_249288)">
<rect x="-1" y="11" width="18" height="3" transform="rotate(-45 -1 11)" fill="#FFFCD0"/>
<rect x="2" y="14" width="18" height="1" transform="rotate(-45 2 14)" fill="#FFFCD0"/>
</g>
<path d="M9.54247 4.10156L7.59168 4.10156L6.8245 5.48003L6.0564 4.44816H4.49414V5.6876L7.01831 8.31551L9.54247 5.68725V4.10156Z" fill="#FF6700"/>
</svg>
