<svg width="72" height="21" viewBox="0 0 72 21" fill="none" xmlns="http://www.w3.org/2000/svg">
<path d="M33.846 1.01953L33.8087 1.0231C33.7478 1.03489 33.6939 1.07518 33.6623 1.13446L29.8081 8.35169L28.8534 1.69732C28.8373 1.58506 28.7482 1.50228 28.6435 1.50228L24.2105 1.50228C24.0774 1.50228 23.9771 1.63364 24.0018 1.7756L26.3338 15.168C26.3528 15.2769 26.4404 15.3557 26.5425 15.3557L30.6427 15.3557C30.7166 15.3557 30.7852 15.3141 30.8238 15.2457L38.6582 1.37048C38.7449 1.21688 38.643 1.01953 38.4771 1.01953L33.846 1.01953Z" fill="white"/>
<path fill-rule="evenodd" clip-rule="evenodd" d="M44.5144 5.61377C43.7655 5.25589 42.8702 5.07812 41.8295 5.07812C40.5817 5.07812 39.4734 5.3022 38.506 5.75179C37.5365 6.20239 36.7464 6.8227 36.1386 7.61233C35.5302 8.4027 35.1303 9.30785 34.9402 10.3246C34.8645 10.6938 34.8262 11.0613 34.8262 11.4225C34.8262 12.2478 35.0242 12.987 35.4199 13.6342C35.8158 14.2817 36.3945 14.7831 37.1509 15.1376C37.8994 15.4884 38.7942 15.6627 39.8343 15.6627C41.0822 15.6627 42.1905 15.4386 43.1579 14.989C44.1274 14.5384 44.9175 13.9181 45.5253 13.1285C46.1331 12.3389 46.5389 11.4348 46.7414 10.4191C46.8058 10.098 46.8377 9.73768 46.8377 9.3382C46.8377 8.51286 46.6397 7.7737 46.244 7.12649C45.8483 6.47937 45.2701 5.97494 44.5144 5.61377ZM39.9803 9.51777C40.2938 9.16606 40.6779 8.99251 41.1455 8.99251C41.8541 8.99251 42.1595 9.26442 42.1595 9.85375C42.1595 10.417 42.0002 10.868 41.6806 11.2205C41.3608 11.5732 40.973 11.7472 40.5049 11.7472C39.8091 11.7472 39.5092 11.4762 39.5092 10.886C39.5092 10.3219 39.666 9.87028 39.9803 9.51777Z" fill="white"/>
<path d="M55.0865 5.36719L55.0496 5.37067C54.9655 5.38672 54.8969 5.45676 54.8787 5.55L53.8626 10.7615L53.8884 10.7243C53.5363 11.2614 53.1111 11.5207 52.5971 11.5207C52.3748 11.5207 52.2243 11.4755 52.1404 11.3975C52.0642 11.3267 52.0224 11.2058 52.0224 11.0168C52.0224 10.8759 52.0388 10.7278 52.0719 10.5724L52.9455 6.13879C52.9738 5.99532 52.873 5.86008 52.7378 5.86008L48.621 5.86008C48.5205 5.86008 48.4338 5.93646 48.4131 6.04315L47.4471 11.0289C47.3709 11.4142 47.3327 11.7943 47.3327 12.1681C47.3327 13.1534 47.6096 13.9507 48.1646 14.5454C48.7206 15.1411 49.5126 15.4356 50.5287 15.4356C51.0887 15.4356 51.6452 15.3356 52.1975 15.136L52.3795 15.0665C52.6195 14.97 52.8492 14.8577 53.0682 14.7297L53.2284 14.6322L53.1416 15.0102C53.029 15.5471 52.8109 15.9432 52.4863 16.2131C52.162 16.4827 51.6756 16.6222 51.0229 16.6222C49.783 16.6222 48.7333 16.4035 47.8727 15.9688C47.7487 15.9062 47.6033 15.9852 47.5752 16.1304L47.026 18.969C47.006 19.0726 47.0535 19.1776 47.1413 19.2238C47.5623 19.4452 48.0743 19.6165 48.6775 19.7392C49.276 19.8609 49.8749 19.9217 50.4738 19.9217C52.5403 19.9217 54.1691 19.4666 55.3562 18.549C56.5485 17.6274 57.3274 16.2472 57.692 14.4202L59.4128 5.64568C59.4409 5.50227 59.3401 5.36719 59.205 5.36719H55.0865Z" fill="white"/>
<path fill-rule="evenodd" clip-rule="evenodd" d="M66.5875 5.33966C66.1368 5.16508 65.6429 5.07812 65.1067 5.07812C63.5691 5.07812 62.2784 5.55615 61.244 6.51276C60.2129 7.46625 59.5394 8.73856 59.2247 10.3218C59.1363 10.7465 59.0918 11.1804 59.0918 11.621C59.0918 12.8477 59.4596 13.8361 60.1946 14.5696C60.9258 15.2994 61.9017 15.6627 63.1115 15.6627C63.66 15.6627 64.2139 15.5591 64.7725 15.3526L64.956 15.2812L65.134 15.2045C65.3093 15.1253 65.4763 15.0382 65.635 14.9433L65.7843 14.8502L65.7405 15.0892L65.7364 15.1277C65.7327 15.2549 65.8269 15.3649 65.9487 15.3649H69.9208L69.9577 15.3614C70.0417 15.3454 70.1103 15.2755 70.1285 15.1824L71.9956 5.65433L72.0001 5.61553C72.0051 5.48749 71.9107 5.37588 71.7879 5.37588H67.6693L67.633 5.37925L67.5985 5.38903C67.5318 5.41468 67.4793 5.47574 67.4625 5.55397L67.4113 5.79116L67.3791 5.76549L67.2633 5.6841C67.0648 5.55196 66.8395 5.43725 66.5875 5.33966ZM64.4663 9.36086C64.7568 9.11583 65.1196 8.99251 65.5624 8.99251C65.841 8.99251 66.0762 9.06054 66.2727 9.19514L66.3413 9.24619C66.4724 9.35257 66.5684 9.48465 66.6316 9.64541L66.6413 9.67422L66.3898 10.9831L66.3507 11.0356C66.1874 11.2419 65.9886 11.4072 65.7527 11.5325C65.4825 11.676 65.2062 11.7472 64.9217 11.7472C64.5125 11.7472 64.2262 11.6724 64.0623 11.5365C63.9113 11.4113 63.8345 11.2154 63.8345 10.9257C63.8345 10.7831 63.8513 10.6193 63.8853 10.4349C63.9837 9.96083 64.1778 9.60421 64.4663 9.36086Z" fill="white"/>
<path fill-rule="evenodd" clip-rule="evenodd" d="M9.44498 3.33941L8.39825 1.13526H0V9.08331L10.0006 21.0023L20.0011 9.08312V0H10.4906L9.44498 3.33941ZM11.6218 2.93964H17.2038V8.13347L9.98119 16.7422L2.75856 8.1346V4.0749H7.22881L9.42665 7.45472L11.6218 2.93964Z" fill="white"/>
<path d="M17.2031 2.93359H11.6211L9.4259 7.44867L7.22807 4.06886H2.75781V8.12855L9.98044 16.7361L17.2031 8.12742V2.93359Z" fill="url(#paint0_linear_20590_439036)"/>
<defs>
<linearGradient id="paint0_linear_20590_439036" x1="9.98044" y1="2.93359" x2="9.98044" y2="16.7361" gradientUnits="userSpaceOnUse">
<stop stop-color="#FF0050"/>
<stop offset="1" stop-color="#FF0008"/>
</linearGradient>
</defs>
</svg>
